<?xml version="1.0" encoding="UTF-8" standalone="no"?>
<svg
   xmlns:dc="http://purl.org/dc/elements/1.1/"
   xmlns:cc="http://creativecommons.org/ns#"
   xmlns:rdf="http://www.w3.org/1999/02/22-rdf-syntax-ns#"
   xmlns:svg="http://www.w3.org/2000/svg"
   xmlns="http://www.w3.org/2000/svg"
   xmlns:sodipodi="http://sodipodi.sourceforge.net/DTD/sodipodi-0.dtd"
   xmlns:inkscape="http://www.inkscape.org/namespaces/inkscape"
   viewBox="0 0 350.6536 109.43979"
   height="109.43979"
   width="350.65359"
   xml:space="preserve"
   version="1.1"
   id="svg2"
   class="style-svg replaced-svg"
   inkscape:version="0.91 r13725"
   sodipodi:docname="htlogo_white.svg"><sodipodi:namedview
     pagecolor="#ffffff"
     bordercolor="#666666"
     borderopacity="1"
     objecttolerance="10"
     gridtolerance="10"
     guidetolerance="10"
     inkscape:pageopacity="0"
     inkscape:pageshadow="2"
     inkscape:window-width="1440"
     inkscape:window-height="796"
     id="namedview50"
     showgrid="false"
     inkscape:zoom="3.0651398"
     inkscape:cx="123.67512"
     inkscape:cy="44.346735"
     inkscape:window-x="-8"
     inkscape:window-y="1072"
     inkscape:window-maximized="1"
     inkscape:current-layer="g12" /><metadata
     id="metadata8"><rdf:RDF><cc:Work
         rdf:about=""><dc:format>image/svg+xml</dc:format><dc:type
           rdf:resource="http://purl.org/dc/dcmitype/StillImage" /><dc:title></dc:title></cc:Work></rdf:RDF></metadata><defs
     id="defs6"><linearGradient
       id="linearGradient58"
       spreadMethod="pad"
       gradientTransform="matrix(700.116,-254.822,-254.822,-700.116,227.808,857.597)"
       gradientUnits="userSpaceOnUse"
       y2="0"
       x2="1"
       y1="0"
       x1="0"><stop
         id="stop60"
         offset="0"
         style="stop-opacity:1;stop-color:#45a0de" /><stop
         id="stop62"
         offset="0.509804"
         style="stop-opacity:1;stop-color:#2da247" /><stop
         id="stop64"
         offset="1"
         style="stop-opacity:1;stop-color:#f4f01f" /></linearGradient></defs><g
     transform="matrix(1.25,0,0,-1.25,-25.640145,137.40654)"
     id="g10"><g
       transform="scale(0.1,0.1)"
       id="g12"><path
         id="path14"
         style="fill:#e2e3e4;fill-opacity:1;fill-rule:evenodd;stroke:none"
         d="m 1089.71,559.016 c 0,-19.914 9.13,-38.637 47.77,-38.637 l 11.28,0 c 44.64,0 47.04,19.441 47.04,43.922 l 0,13.437 -16.8,0 0,-9.121 c 0,-25.679 -4.32,-31.437 -31.68,-31.437 l -6.48,0 c -22.57,0 -30.49,6.961 -30.49,29.758 l 0,60.96 81.85,0 0,16.801 -81.85,0 0,29.039 -20.64,0 0,-29.039 -26.88,0 0,-16.801 26.88,0 0,-68.882" /><path
         id="path16"
         style="fill:#e2e3e4;fill-opacity:1;fill-rule:evenodd;stroke:none"
         d="m 1215.44,570.543 c 0,-45.125 30.72,-50.164 57.6,-50.164 l 37.44,0 c 38.39,0 61.68,8.398 61.68,36.48 l 0,2.403 -20.64,0 c -1.2,-18.719 -11.76,-22.082 -37.68,-22.082 l -28.32,0 c -36.01,0 -49.44,7.199 -49.44,35.039 l 0,7.683 136.08,0 0,13.676 c 0,43.68 -26.64,53.043 -63.6,53.043 l -33.12,0 c -29.28,0 -60,-5.047 -60,-49.441 l 0,-26.637 z m 136.08,26.156 -115.44,0 c 1.92,27.84 9.6,33.121 42.24,33.121 l 30.24,0 c 33.6,0 42.96,-12.48 42.96,-24.965 l 0,-8.156" /><path
         id="path18"
         style="fill:#e2e3e4;fill-opacity:1;fill-rule:evenodd;stroke:none"
         d="m 1399.01,569.82 c 0,-44.402 32.88,-49.441 51.36,-49.441 l 46.56,0 c 38.4,0 53.76,12.004 53.76,42.965 l 0,3.594 -19.2,0 0,-4.079 c 0,-19.921 -16.08,-25.679 -35.28,-25.679 l -34.8,0 c -24.96,0 -41.76,6.242 -41.76,33.601 l 0,25.68 c 0,30.477 18.24,33.359 37.68,33.359 l 37.92,0 c 20.64,0 34.08,-4.8 34.08,-25.203 l 0,-2.879 19.2,0 0,3.364 c 0,25.918 -15.12,41.519 -53.52,41.519 l -34.56,0 c -30.24,0 -61.44,-5.047 -61.44,-49.441 l 0,-27.36" /><path
         id="path20"
         style="fill:#e2e3e4;fill-opacity:1;fill-rule:evenodd;stroke:none"
         d="m 1582.36,522.301 20.65,0 0,69.597 c 0,28.805 11.03,37.922 59.28,37.922 l 5.27,0 c 40.08,0 45.12,-11.761 45.12,-29.757 l 0,-77.762 20.64,0 0,82.801 c 0,22.078 -12.24,41.519 -50.88,41.519 l -29.52,0 c -25.68,0 -41.76,-4.078 -49.44,-23.043 l -0.47,0 0,72.481 -20.65,0 0,-173.758" /><path
         id="path22"
         style="fill:#e2e3e4;fill-opacity:1;fill-rule:evenodd;stroke:none"
         d="m 1772.14,522.301 20.65,0 0,69.597 c 0,28.805 11.03,37.922 59.28,37.922 l 5.28,0 c 40.08,0 45.12,-11.761 45.12,-29.757 l 0,-77.762 20.64,0 0,82.801 c 0,22.078 -12.25,41.519 -50.88,41.519 l -30.97,0 c -25.67,0 -41.76,-4.078 -49.43,-23.043 l -0.49,0 0,21.121 -19.2,0 0,-122.398" /><path
         id="path24"
         style="fill:#e2e3e4;fill-opacity:1;fill-rule:evenodd;stroke:none"
         d="m 2102.09,571.258 c 0,-28.559 -16.79,-34.078 -40.8,-34.078 l -42,0 c -23.99,0 -40.8,5.519 -40.8,34.078 l 0,24.484 c 0,28.559 16.81,34.078 40.8,34.078 l 42,0 c 24.01,0 40.8,-5.519 40.8,-34.078 l 0,-24.484 z m -144.25,-1.195 c 0,-40.321 28.57,-49.684 67.69,-49.684 l 29.52,0 c 39.12,0 67.69,9.363 67.69,49.684 l 0,26.875 c 0,40.32 -28.57,49.683 -67.69,49.683 l -29.52,0 c -39.12,0 -67.69,-9.363 -67.69,-49.683 l 0,-26.875" /><path
         id="path26"
         style="fill:#e2e3e4;fill-opacity:1;fill-rule:evenodd;stroke:none"
         d="m 2160.42,522.301 20.6484,0 0,173.758 -20.6484,0 0,-173.758 z" /><path
         id="path28"
         style="fill:#e2e3e4;fill-opacity:1;fill-rule:evenodd;stroke:none"
         d="m 2362.98,571.258 c 0,-28.559 -16.8,-34.078 -40.8,-34.078 l -41.99,0 c -24.01,0 -40.8,5.519 -40.8,34.078 l 0,24.484 c 0,28.559 16.79,34.078 40.8,34.078 l 41.99,0 c 24,0 40.8,-5.519 40.8,-34.078 l 0,-24.484 z m -144.24,-1.195 c 0,-40.321 28.56,-49.684 67.68,-49.684 l 29.52,0 c 39.12,0 67.69,9.363 67.69,49.684 l 0,26.875 c 0,40.32 -28.57,49.683 -67.69,49.683 l -29.52,0 c -39.12,0 -67.68,-9.363 -67.68,-49.683 l 0,-26.875" /><path
         id="path30"
         style="fill:#e2e3e4;fill-opacity:1;fill-rule:evenodd;stroke:none"
         d="m 2569.4,644.699 -19.21,0 0,-21.84 -0.48,0 c -6.47,19.918 -22.08,23.762 -37.68,23.762 l -43.92,0 c -23.04,0 -55.2,-5.047 -55.2,-49.441 l 0,-20.399 c 0,-31.445 17.04,-48.965 51.36,-48.965 l 42.48,0 c 28.8,0 37.2,7.442 41.52,18.965 l 0.47,0 0,-18.242 c 0,-33.121 -16.31,-33.598 -57.12,-33.598 l -20.14,0 c -19.21,0 -35.53,4.559 -35.53,20.395 l 0,3.363 -19.2,0 0,-4.082 c 0,-15.601 10.08,-36.476 48,-36.476 l 46.56,0 c 25.68,0 58.09,7.441 58.09,44.402 l 0,122.156 z M 2548.74,577.5 c 0,-21.117 -10.79,-32.883 -40.31,-32.883 l -39.84,0 c -25.2,0 -35.28,8.645 -35.04,36.723 l 0,22.558 c 0.24,20.157 15.36,25.922 36.48,25.922 l 42,0 c 29.04,0 37.2,-14.64 36.71,-37.437 l 0,-14.883" /><path
         id="path32"
         style="fill:#e2e3e4;fill-opacity:1;fill-rule:evenodd;stroke:none"
         d="m 2611.1,673.5 20.64,0 0,22.559 -20.64,0 0,-22.559 z m 0,-151.199 20.64,0 0,122.398 -20.64,0 0,-122.398" /><path
         id="path34"
         style="fill:#e2e3e4;fill-opacity:1;fill-rule:evenodd;stroke:none"
         d="m 2667.98,570.543 c 0,-45.125 30.71,-50.164 57.6,-50.164 l 37.44,0 c 38.39,0 61.68,8.398 61.68,36.48 l 0,2.403 -20.64,0 c -1.21,-18.719 -11.76,-22.082 -37.69,-22.082 l -28.31,0 c -36.01,0 -49.44,7.199 -49.44,35.039 l 0,7.683 136.08,0 0,13.676 c 0,43.68 -26.64,53.043 -63.6,53.043 l -33.12,0 c -29.29,0 -60,-5.047 -60,-49.441 l 0,-26.637 z m 136.08,26.156 -115.44,0 c 1.91,27.84 9.6,33.121 42.24,33.121 l 30.24,0 c 33.6,0 42.96,-12.48 42.96,-24.965 l 0,-8.156" /><path
         id="path36"
         style="fill:#e2e3e4;fill-opacity:1;fill-rule:evenodd;stroke:none"
         d="m 2852.5,557.098 c 0,-36.719 28.57,-36.719 59.05,-36.719 l 37.92,0 c 25.2,0 56.88,1.195 56.88,35.519 l 0,0.485 c 0,33.117 -21.11,36.238 -52.08,36.238 l -54.48,0 c -21.59,0 -24.96,5.762 -24.96,15.84 l 0,4.559 c 0,13.918 6.48,16.8 35.99,16.8 l 36.01,0 c 22.56,0 35.04,-0.48 35.04,-19.203 l 0,-1.195 19.2,0 0,6.476 c 0,17.286 -6.48,30.723 -53.04,30.723 l -31.68,0 c -50.88,0 -62.16,-11.039 -62.16,-30.957 l 0,-7.203 c 0,-23.281 10.8,-32.641 39.85,-32.641 l 63.59,0 c 24.72,0 28.08,-6.48 28.08,-18.238 l 0,-0.961 c 0,-18.238 -9.84,-19.441 -40.8,-19.441 l -44.17,0 c -21.11,0 -29.03,6.242 -29.03,21.359 l 0,6 -19.21,0 0,-7.441" /><path
         id="path38"
         style="fill:#e2e3e4;fill-opacity:1;fill-rule:evenodd;stroke:none"
         d="m 1078.67,762.301 20.65,0 0,69.597 c 0,28.805 11.03,37.922 59.28,37.922 l 5.28,0 c 40.08,0 45.12,-11.761 45.12,-29.757 l 0,-77.762 20.64,0 0,82.801 c 0,22.078 -12.24,41.519 -50.88,41.519 l -29.52,0 c -25.68,0 -41.76,-4.078 -49.44,-23.043 l -0.48,0 0,72.481 -20.65,0 0,-173.758" /><path
         id="path40"
         style="fill:#e2e3e4;fill-opacity:1;fill-rule:evenodd;stroke:none"
         d="m 1271.34,913.5 20.64,0 0,22.559 -20.64,0 0,-22.559 z m 0,-151.199 20.64,0 0,122.398 -20.64,0 0,-122.398" /><path
         id="path42"
         style="fill:#e2e3e4;fill-opacity:1;fill-rule:evenodd;stroke:none"
         d="m 1484.7,884.699 -19.19,0 0,-21.84 -0.49,0 c -6.48,19.918 -22.08,23.762 -37.68,23.762 l -43.92,0 c -23.04,0 -55.2,-5.047 -55.2,-49.441 l 0,-20.399 c 0,-31.445 17.04,-48.965 51.36,-48.965 l 42.48,0 c 28.8,0 37.2,7.442 41.52,18.965 l 0.48,0 0,-18.242 c 0,-33.121 -16.32,-33.598 -57.12,-33.598 l -20.16,0 c -19.2,0 -35.52,4.559 -35.52,20.395 l 0,3.363 -19.2,0 0,-4.082 c 0,-15.601 10.08,-36.476 48,-36.476 l 46.56,0 c 25.68,0 58.08,7.441 58.08,44.402 l 0,122.156 z M 1464.06,817.5 c 0,-21.117 -10.8,-32.883 -40.32,-32.883 l -39.84,0 c -25.2,0 -35.27,8.645 -35.04,36.723 l 0,22.558 c 0.24,20.157 15.36,25.922 36.48,25.922 l 42,0 c 29.04,0 37.2,-14.64 36.72,-37.437 l 0,-14.883" /><path
         id="path44"
         style="fill:#e2e3e4;fill-opacity:1;fill-rule:evenodd;stroke:none"
         d="m 1523.52,762.301 20.65,0 0,69.597 c 0,28.805 11.04,37.922 59.28,37.922 l 5.28,0 c 40.08,0 45.11,-11.761 45.11,-29.757 l 0,-77.762 20.65,0 0,82.801 c 0,22.078 -12.24,41.519 -50.88,41.519 l -29.52,0 c -25.68,0 -41.76,-4.078 -49.44,-23.043 l -0.48,0 0,72.481 -20.65,0 0,-173.758" /><path
         id="path46"
         style="fill:#e2e3e4;fill-opacity:1;fill-rule:evenodd;stroke:none"
         d="m 1708.75,797.098 c 0,-36.719 28.57,-36.719 59.04,-36.719 l 37.93,0 c 25.19,0 56.87,1.195 56.87,35.519 l 0,0.485 c 0,33.117 -21.11,36.238 -52.08,36.238 l -54.47,0 c -21.61,0 -24.96,5.762 -24.96,15.84 l 0,4.559 c 0,13.918 6.47,16.8 35.99,16.8 l 36.01,0 c 22.56,0 35.04,-0.48 35.04,-19.203 l 0,-1.195 19.2,0 0,6.476 c 0,17.286 -6.49,30.723 -53.04,30.723 l -31.69,0 c -50.88,0 -62.16,-11.039 -62.16,-30.957 l 0,-7.203 c 0,-23.281 10.8,-32.641 39.84,-32.641 l 63.6,0 c 24.72,0 28.09,-6.48 28.09,-18.238 l 0,-0.961 c 0,-18.238 -9.85,-19.441 -40.8,-19.441 l -44.17,0 c -21.12,0 -29.04,6.242 -29.04,21.359 l 0,6 -19.2,0 0,-7.441" /><path
         id="path48"
         style="fill:#e2e3e4;fill-opacity:1;fill-rule:evenodd;stroke:none"
         d="m 1907.92,799.016 c 0,-19.914 9.12,-38.637 47.77,-38.637 l 11.28,0 c 44.64,0 47.04,19.441 47.04,43.922 l 0,13.437 -16.81,0 0,-9.121 c 0,-25.679 -4.32,-31.437 -31.67,-31.437 l -6.48,0 c -22.56,0 -30.48,6.961 -30.48,29.758 l 0,60.96 81.84,0 0,16.801 -81.84,0 0,29.039 -20.65,0 0,-29.039 -26.87,0 0,-16.801 26.87,0 0,-68.882" /><path
         id="path50"
         style="fill:#e2e3e4;fill-opacity:1;fill-rule:evenodd;stroke:none"
         d="m 2040.85,762.301 20.64,0 0,77.762 c 0,15.835 10.55,29.757 32.4,29.757 l 12.71,0 c 36.72,0 42.97,-4.8 42.97,-35.043 l 0,-5.277 19.19,0 0,14.641 c 0,30 -12.71,42.48 -51.35,42.48 l -19.45,0 c -14.16,0 -29.75,-3.844 -37.43,-19.683 l -0.49,0 0,17.761 -19.19,0 0,-122.398" /><path
         id="path52"
         style="fill:#e2e3e4;fill-opacity:1;fill-rule:evenodd;stroke:none"
         d="m 2187.69,810.543 c 0,-45.125 30.72,-50.164 57.6,-50.164 l 37.44,0 c 38.4,0 61.68,8.398 61.68,36.48 l 0,2.403 -20.65,0 C 2322.57,780.543 2312,777.18 2286.09,777.18 l -28.32,0 c -36,0 -49.45,7.199 -49.45,35.039 l 0,7.683 136.09,0 0,13.676 c 0,43.68 -26.64,53.043 -63.61,53.043 l -33.11,0 c -29.28,0 -60,-5.047 -60,-49.441 l 0,-26.637 z m 136.07,26.156 -115.44,0 c 1.93,27.84 9.6,33.121 42.25,33.121 l 30.23,0 c 33.61,0 42.96,-12.48 42.96,-24.965 l 0,-8.156" /><path
         id="path54"
         style="fill:#e2e3e4;fill-opacity:1;fill-rule:evenodd;stroke:none"
         d="m 2371.26,810.543 c 0,-45.125 30.73,-50.164 57.6,-50.164 l 37.44,0 c 38.4,0 61.68,8.398 61.68,36.48 l 0,2.403 -20.64,0 c -1.19,-18.719 -11.76,-22.082 -37.68,-22.082 l -28.32,0 c -36.01,0 -49.44,7.199 -49.44,35.039 l 0,7.683 136.08,0 0,13.676 c 0,43.68 -26.64,53.043 -63.59,53.043 l -33.13,0 c -29.27,0 -60,-5.047 -60,-49.441 l 0,-26.637 z m 136.08,26.156 -115.44,0 c 1.92,27.84 9.6,33.121 42.24,33.121 l 30.25,0 c 33.59,0 42.95,-12.48 42.95,-24.965 l 0,-8.156" /><path
         id="path56"
         style="fill:#e2e3e4;fill-opacity:1;fill-rule:evenodd;stroke:none"
         d="m 2571.4,799.016 c 0,-19.914 9.11,-38.637 47.75,-38.637 l 11.28,0 c 44.64,0 47.04,19.441 47.04,43.922 l 0,13.437 -16.8,0 0,-9.121 c 0,-25.679 -4.31,-31.437 -31.67,-31.437 l -6.49,0 c -22.56,0 -30.48,6.961 -30.48,29.758 l 0,60.96 81.84,0 0,16.801 -81.84,0 0,29.039 -20.63,0 0,-29.039 -26.89,0 0,-16.801 26.89,0 0,-68.882" /><path
         id="path66"
         style="fill:url(#linearGradient58);fill-opacity:1;fill-rule:evenodd;stroke:none"
         d="m 414.316,403.621 c -16.695,10.117 -53.621,35.262 -67.011,51.457 -12.836,8.742 -24.672,17.988 -35.45,27.621 -9.265,7.731 -17.839,16.301 -25.644,25.723 -1.172,1.41 -2.32,2.836 -3.441,4.273 -9.063,10.887 -16.875,22.106 -23.372,33.524 -7.628,13.414 -12.269,22.301 -17.019,40.851 -3.981,19.496 -5.234,32.43 -5.082,47.832 -28.332,58.625 -36.563,123.481 -18.883,186.891 13.09,46.949 38.906,86.59 73.777,118.02 7.528,17.125 16.887,33.05 28.067,47.488 10.691,16.629 20.637,30.769 49.383,49.629 27.644,18.15 77.902,31.47 117.879,30.93 18.476,13.53 40.089,20.71 64.839,24.74 47.262,5.39 79.168,2.22 116.493,-6.39 18.808,-4.33 45.027,-17.46 45.027,-17.46 -54.891,19.82 -87.711,22.51 -144.391,17.57 25.133,-8.53 54.653,-29.87 77.192,-58.13 44.23,28.77 86.351,35.13 116.25,19.84 l -4.11,-0.96 c -25.644,13.11 -58.992,5.79 -97.121,-20.08 91.344,7.4 169.336,-18.14 219.184,-78.318 l 0.125,-2.223 c -45.715,55.191 -120.848,79.461 -205.059,73.911 84.348,-25.176 153.828,-74.512 200.754,-135.11 63.703,-70.281 91.414,-159.559 66.129,-250.23 -15.387,-55.18 -48.344,-101.879 -92.93,-137.551 -2.129,-4.223 -14.382,-26.391 -21.718,-33.938 -13.5,-16.859 -30.008,-31.453 -49.657,-43.25 -26.961,-16.179 -56.652,-25.742 -87.773,-29.222 -3.781,-0.762 -7.613,-1.473 -11.484,-2.129 -11.52,-8.075 -25.625,-14.414 -41.614,-18.914 -6.265,-1.801 -12.777,-3.301 -19.418,-4.543 -36.254,-6.082 -81.039,-4.164 -124.425,7.011 -28.528,7.356 -55.516,18.207 -79.497,31.137 z m 337.618,279.375 -0.184,6.477 c 33.586,2.617 63.285,10.574 94.199,21.816 0,0 -50.402,-10.492 -94.547,-12.828 -0.718,16.012 -1.964,32.266 -3.761,48.687 l -0.34,3.075 c 13.105,37.785 22.176,70.148 22.176,70.148 -6.387,-20.391 -14.071,-41.488 -23.02,-63.016 -5.875,47.676 -16.012,92.579 -29.309,133.036 30.336,-10.758 58.536,-22.903 84.047,-36.328 53.414,-88.161 79.442,-183.672 73.118,-265.227 -4.391,-29.281 -13.012,-56.602 -25.758,-80.918 l -0.825,-0.684 c 0.918,9.688 0.629,19.559 -0.792,29.524 -0.165,-9.938 -1.122,-20.363 -2.911,-31.317 l -0.238,-1.398 c -36.898,-29.387 -82.035,-51.129 -131.93,-63.566 0.157,1.562 9.618,28.707 13.27,43.371 3.305,9.632 6.336,19.73 9.074,30.238 5.145,3.516 10.246,7.141 15.305,10.863 0,0 -5.188,-3.039 -14.551,-7.949 12.02,47.359 18.184,102.902 17.055,162.344 53.453,-42.227 87.926,-93.524 94.926,-142.586 1.113,67.512 -34.336,112.504 -95.004,146.238 z M 333.047,859.52 c -10.301,17.363 -17.945,33.175 -20.547,50.64 10.129,5.113 20.969,9.75 32.434,13.887 22.472,6.043 47.168,10.066 73.519,12.086 l -5.664,-4.117 C 382.016,909.348 355.977,886.105 333.047,859.52 Z m -20.945,53.605 c -1.668,13.578 -0.848,27.012 2.687,40.047 13.629,11.637 28.422,22.25 44.195,31.73 28.508,14.231 57.403,23.548 90.801,30.188 -8.578,-16.223 -19.293,-41.961 -28.226,-74.18 -29.555,-3.914 -52.071,-8.015 -76.625,-16.863 -11.555,-3.106 -22.52,-6.746 -32.832,-10.922 z m 348.73,95.825 c 18.594,-27.942 37.102,-64.559 50.938,-103.044 30.394,-11.972 58.132,-26.027 82.953,-41.59 l -3.489,5.422 c -35.339,54.348 -75.664,98.797 -120.496,132.012 50.84,-32.992 96.559,-79.105 134.168,-136.93 2.684,-4.117 5.285,-8.254 7.809,-12.402 10.969,-7.645 21.273,-15.586 30.898,-23.777 52.621,-35.407 88.274,-77.661 99.668,-125.266 -0.133,63.387 -24.105,127.047 -66.343,181.59 -51.118,56.394 -127.426,101.137 -216.106,123.985 z m 50.363,-345.43 c -23.25,-42.028 -48.918,-80.93 -75.531,-115.211 24.883,-14.922 45.047,-32.543 58.422,-51.286 15.269,6.786 27.965,13.024 37.336,17.86 6.832,43.519 8.812,100.844 4.648,173.199 -4.679,-0.559 -8.5,-0.398 -13.082,-0.754 -3.621,-7.969 -8.105,-17.148 -11.793,-23.808 z m -307.539,95.351 c -24.816,-2.672 -43.742,-6.769 -64.582,-13.402 17.864,8.511 37.91,15.195 59.688,19.832 -28.746,19.629 -51.621,41.957 -67.949,65.793 -18.45,-22.781 -34.235,-46.406 -47.02,-70.227 2.09,-12.176 4.801,-24.461 8.125,-36.797 13.629,8.61 29.48,15.77 47.156,21.399 -17.113,-8.156 -32.226,-17.985 -44.941,-29.293 4.719,-16.25 14.672,-42.125 23.359,-61.703 14.754,-12.203 39.66,-30.582 57.074,-41.969 9.215,33.777 17.274,58.293 33.485,94.824 -2.485,21.758 -4.395,51.543 -4.395,51.543 z M 613.887,373.906 c 13.918,2.422 26.574,6.153 37.629,11.035 l 0.75,0.332 c 2.812,1.266 5.519,2.602 8.113,4.016 -43.27,0.524 -88.383,11.902 -132.074,32.734 14.156,-16.507 28.933,-29.168 43.867,-37.355 26.258,-2.254 51.816,-2.172 76.109,-0.031 -21.16,-3.254 -43.258,-5.032 -65.879,-4.867 10.524,-4.297 21.075,-6.325 31.485,-5.864 z m 79.144,26.282 c 28.856,3.609 56.262,12.652 81.074,27.55 25.086,15.063 45.735,35.051 61.825,58.731 -36.25,-25.774 -79.078,-44.801 -125.723,-55.922 l -0.363,-1.356 c -3.047,-10.918 -8.809,-20.609 -16.813,-29.003 z m -147.797,24.066 c 43.317,-18.582 87.555,-27.516 129.371,-25.621 10.231,8.133 17.657,17.84 21.668,28.851 -47.679,-9.605 -98.953,-11.078 -151.039,-3.23 z m -46.187,634.796 c -9.406,-8.19 -17.121,-16.69 -23.402,-30.59 44.066,9.86 84.668,12.07 132.925,5.93 -37.882,15.93 -72.554,24.28 -109.523,24.66 z m 131.582,-28.07 c -28.652,33.59 -65.481,54.73 -95.899,47.25 -10.156,-3.17 -16.96,-7.05 -25.121,-11.99 38.176,-2.87 73.696,-15.34 121.02,-35.26 z M 571.035,708.031 c 13.711,-3.531 26.285,-7.843 38.695,-10.492 -24.523,1.531 -66.074,7.684 -86.843,12.742 -38.117,9.282 -54.282,16.27 -84.098,31.43 -5.652,-11.711 -10.98,-23.336 -15.98,-34.844 4.886,-40.812 12.664,-79.394 22.64,-114.832 33.672,2.77 70.922,-0.226 107.047,-9.531 27.527,-7.094 53.047,-17.301 75.242,-29.617 26.407,33.894 52.102,72.609 75.555,115.004 3.164,5.714 7.234,12.988 10.238,18.691 -33.445,1.5 -56.398,3.75 -103.801,10.957 36.25,-2.266 109.875,1.176 109.875,1.176 -37.574,16.551 -82.113,30.308 -131.773,43.094 -48.844,12.582 -96.305,18.644 -139.715,18.726 l -1.582,-3.601 c 36.336,-20.719 77.582,-36.817 124.5,-48.903 z m -254.148,-73.84 c -19.922,17.575 -32.805,29.309 -49.817,49.231 -7.968,-12.262 -11.718,-21.731 -14.937,-36.039 -1.153,-5.129 -2.219,-10.285 -3.129,-15.457 18.773,-36.582 45.68,-70.598 79.277,-99.985 5.547,13.598 16.114,25.075 30.332,34.286 -5.121,7.039 -10.097,14.265 -14.906,21.664 -13.184,20.269 -17.164,25.371 -26.82,46.3 z m 108.781,-52.16 10.262,-5.273 -2.106,6.859 c -1.621,-0.234 -6.562,-1.316 -8.156,-1.586 z M 274.469,695.734 c 6.469,-6.199 20.172,-21.121 27.304,-27.211 -3.793,9.981 -11.925,30.747 -14.937,40.735 -3.656,-3.699 -9.203,-9.547 -12.367,-13.524 z m -48.09,118.813 c -4.387,-18.231 -4.055,-36.277 0.418,-54.02 -2.961,5.801 -5.379,11.559 -7.195,17.254 -4.196,-42.461 3.519,-87.199 20.277,-127.246 0.488,2.547 1.344,10.11 2.047,14.195 2.453,15.508 4.5,26.016 8.16,42.129 -11.617,16.539 -18.949,36.438 -23.289,53.668 6.652,-13.035 16.047,-26.269 27.484,-39.457 5.008,15.985 11.407,32 19.157,47.875 -6.043,41.114 -5.258,81.02 2.285,117.629 -25.407,-20 -42.684,-44.324 -49.344,-72.027 z m 709.922,-170 c 7.422,59.746 -26.321,127.641 -92.688,184.094 -8.418,5.664 -17.269,11.152 -26.527,16.461 50.605,-86.379 68.984,-178.438 57.273,-256.524 -1.992,-25.672 -7.187,-49.973 -15.75,-72.219 36.059,32.825 62.625,73.719 75.758,120.797 0.684,2.457 1.328,4.922 1.934,7.391 z M 288.707,901.691 c 4.258,2.336 8.668,4.547 13.223,6.653 -0.895,10.953 -0.469,21.957 1.328,32.918 -5.895,-12.508 -10.746,-25.746 -14.551,-39.571 z m -40.098,-30.046 c 8.368,8.699 18.09,16.539 29.02,23.503 2.473,10.395 5.512,20.497 9.109,30.262 -14.898,-16.504 -27.73,-34.504 -38.129,-53.765 z m -2.246,-260.403 c 1.266,-16.219 5.2,-31.91 10.817,-46.492 12.215,-27.102 33.175,-50.285 59.043,-73.496 4.597,-3.379 9.289,-6.559 14.054,-9.535 -5.996,13.586 -7.953,27.398 -4.929,40.883 -32.395,27.742 -58.981,59.703 -78.493,94.207 -0.195,-1.852 -0.359,-3.711 -0.492,-5.567 z m 30.75,136.61 c -5.777,-11.817 -11.312,-25.586 -15.55,-37.36 2.093,-2.242 3.324,-4.086 5.527,-6.324 4.711,4.633 11.34,10.539 16.988,14.609 -2.691,9.723 -5.012,19.418 -6.965,29.075 z m 137.813,166.109 c -30.09,-22.957 -50.508,-39.84 -73.742,-66.703 17.101,-24.082 32.175,-42.192 61.769,-63.039 0.129,59.617 5.953,98.562 11.973,129.742 z m 63.347,42.805 c -5.769,-3.34 -11.503,-6.809 -17.207,-10.414 8.411,0.515 16.961,0.828 25.625,0.937 -3.015,3.121 -5.82,6.285 -8.418,9.477 z m 5.891,16.363 c 41.988,22.187 80.035,37.611 122.715,46.381 -48.469,6.85 -88.973,8.11 -133.481,0.79 -2.347,-15.62 1.137,-32.628 10.766,-47.171 z m -47.473,-25.246 c 11.52,7.613 21.438,13.832 33.282,20.383 -7.852,12.394 -11.328,23.336 -12.668,35.564 -7.832,-17.58 -14.629,-33.74 -20.614,-55.947 z m -77.476,36.734 c 29.711,17.853 59.988,30.823 95.445,39.893 0,0 14.356,22.66 25.043,34.4 -40.375,-4.82 -65.492,-11.69 -98.254,-28.31 -22.383,-11.36 -37.285,-24.19 -50.422,-43.116 -6.414,-9.73 -10.398,-19.398 -13.824,-28.066 13.11,9.375 27.156,17.781 42.012,25.199 z m -78.559,-201.64 c 11.453,21.168 25.301,41.996 41.426,62.089 -10.82,19.153 -17.516,39.094 -19.762,59.239 -5.382,-3.043 -10.527,-6.235 -15.429,-9.567 -8.5,-34.457 -10.645,-72.351 -6.235,-111.761 z M 688.488,485.801 c -48.293,-26.285 -98.433,-43.637 -147,-51.828 54.532,-8.883 108.055,-7.297 157.36,3.226 2.632,15.403 -1.121,32.106 -10.36,48.602 z m 45.766,228.554 c -2.285,-5.847 -4.633,-11.621 -7.024,-17.242 l 1.067,-0.707 7.168,0.512 c -0.367,5.715 -0.766,11.523 -1.211,17.437 z M 725.172,483.59 c 2.152,8.66 4.066,17.965 5.711,27.953 -10.805,-7.273 -21.766,-14.078 -32.84,-20.406 8.266,-13.121 13.172,-26.696 14.043,-40.196 4.742,10.161 9.109,21.075 13.086,32.649 z M 512.363,445.281 c 37.364,25.75 77.864,62.559 111.164,102.242 -20.925,12.305 -45.597,22.641 -73.281,29.778 -36.816,9.48 -72.16,11.66 -102.891,8.097 0.922,-3.14 4.317,-13.179 5.274,-16.273 39.855,-18.266 82.976,-33.98 82.976,-33.98 -27.621,6.031 -53.914,12.203 -79.226,21.687 15.574,-47.457 55.98,-111.648 55.984,-111.551 z m -67.359,-31.867 c 13.047,3.754 26.023,8.07 39.937,15.262 -40.523,-0.938 -67.214,2.875 -101.777,14.558 22.129,-12.675 35.953,-20.589 61.84,-29.82 z m -30.75,0.816 c 4.848,-2.921 11.637,-2.921 15.141,-2.453 -12.45,4.793 -18.77,7.582 -32.567,14.325 7.016,-5.438 9.473,-7.309 17.426,-11.872 z m -45.274,75.879 c 0.313,-10.523 2.223,-20.601 4.047,-29.406 29.856,-11.246 60.684,-16.226 92.512,-17.066 -35.039,11.902 -67.43,27.664 -96.559,46.472 z m 4.266,56.989 c -2.637,-16.524 -4.094,-32 -4.328,-46.207 33.539,-22.34 71.766,-40.559 113.723,-53.27 -39.629,25.649 -76.993,59.184 -109.395,99.477 z m 2.574,14.547 -0.496,-2.629 c 32.727,-41.637 74.149,-80.024 118.262,-107.895 -19.68,31.887 -38.766,66.445 -53.27,112.07 -8.562,3.965 -22.011,9.454 -30.23,13.563 -17.523,-4.359 -22,-6.926 -34.266,-15.109 z m 6.129,29.183 c -1.758,-9.969 -1.23,-6.445 -2.926,-13.933 9.282,3.906 7.297,3.8 18.157,6.308 -8.414,4.363 -7.239,3.117 -15.231,7.625 z m 29.731,89.004 c -12.203,-29.008 -17.723,-48.094 -25.524,-74.707 15.016,-8.785 18.176,-11.496 30.379,-18.172 4.27,0.656 10.77,2.508 15.188,2.969 -8.993,33.039 -14.309,54.793 -20.043,89.91 z m 147.05,250.07 c -4.3,-5.285 -7.832,-9.629 -12.117,-15.191 37.313,-22.055 80.684,-32.52 80.684,-32.52 -8.387,1.184 -12.859,1.758 -27.449,4.938 -21.16,5.004 -43.539,10.957 -59.344,19.957 -25.684,-33.961 -51.887,-72.035 -75.234,-114.242 -3.782,-6.824 -7.454,-13.641 -11.028,-20.449 41.949,2.105 88,-2.434 135.844,-14.754 49.012,-12.629 93.297,-32.336 130.805,-56.379 4.316,8.605 8.441,17.176 12.382,25.699 -0.507,6.207 -1.062,12.519 -1.644,18.941 -5.008,54.649 -15.656,105.219 -30.172,149.618 -23.234,7.691 -47.613,14.589 -72.91,20.656 -24.172,5.789 -46.348,10.308 -69.817,13.726 z m 84.836,82.848 c -21.144,-15.355 -51.222,-43.402 -75.105,-70.973 21.824,-2.793 42.984,-6.07 65.398,-11.441 21.641,-5.188 42.313,-11.375 61.961,-18.434 -15.25,39.45 -34.152,75 -52.254,100.848 z m -90.449,-68.551 c 24.438,27.528 49.297,50.981 73.449,69.341 -46.043,-9 -90.203,-24.47 -136.121,-49.919 4.145,-4.953 8.61,-11.98 13.539,-16.676 17.067,-0.222 31.352,-0.894 49.133,-2.746 z m -18.551,-22.453 c 3.032,3.727 4.895,6.617 7.946,10.219 -9.293,1.176 -15.43,1.633 -24.543,2.426 5.972,-4.868 10.304,-8.231 16.597,-12.645 z M 436.363,773.141 c 4.457,8.707 9.321,17.078 14.285,25.707 22.571,39.211 49.93,80.941 77.497,115.609 -10.946,6.875 -20.879,14.125 -29.618,21.676 -17.609,1.097 -34.793,1.469 -51.425,1.097 -5.895,-3.98 -10.344,-7.226 -16.145,-11.488 -9.559,-44.469 -14.918,-94.359 -12.781,-151.203 l 3.16,-2.148 c 5.012,0.707 9.871,0.246 15.027,0.75 z M 419.77,736.914 c 1.832,3.973 3.699,7.957 5.601,11.945 -2.273,1.278 -4.519,2.563 -6.738,3.864 0.324,-5.235 0.703,-10.504 1.137,-15.809 z M 365.832,571.656 c 1.977,11.266 2.617,13.098 5.559,25.016 -17.149,10.098 -22.774,13.883 -37.493,24.617 7.684,-15.121 7.758,-13.68 17.375,-28.473 4.707,-7.234 9.563,-14.293 14.559,-21.16 z m -5.91,-64.59 c -0.125,13.739 0.82,28.489 2.793,44.063 -8.481,-8.254 -14.43,-17.691 -17.313,-28.047 -0.41,-1.473 -0.757,-2.949 -1.035,-4.445 5.051,-3.961 10.242,-7.817 15.555,-11.571 z m 4.719,-43.027 c -2.293,9.727 -3.739,20.383 -4.368,31.852 -5.75,3.929 -11.371,7.968 -16.851,12.129 0.098,-13.27 4.816,-27.082 13.492,-40.618 2.559,-1.168 5.137,-2.293 7.727,-3.363 z m 89.195,-61.324 c -4.52,-0.969 -8.941,-1.621 -13.266,-1.957 16.895,-7.879 35.582,-14.621 55.731,-19.813 29.906,-7.703 58.527,-10.898 84.375,-10.238 -6.406,2.5 -12.75,5.773 -19.008,9.762 -22.934,1.386 -46.266,4.855 -69.586,10.863 -13.176,3.395 -25.93,7.203 -38.246,11.383 z m 55.227,24.047 c -15.844,-10.192 -27.801,-15.782 -42.344,-20.543 9.496,-3.114 19.203,-5.957 29.117,-8.508 19.066,-4.914 38.074,-8.527 56.816,-10.949 -13.984,10.609 -31.91,25.652 -43.589,40 z M 631.309,542.75 c -29.774,-37.652 -60.614,-69.477 -90.477,-93.41 54.66,9.137 105.574,27.234 143.426,43.41 -11.699,17.816 -29.731,35.137 -52.949,50" /><path
         id="path68"
         style="fill:#e2e3e4;fill-opacity:1;fill-rule:nonzero;stroke:none"
         d="m 1095.13,368.133 21.29,0 62.34,-124.289 0.38,0 0,124.289 13.43,0 0,-138.867 -21.29,0 -62.34,124.289 -0.38,0 0,-124.289 -13.43,0 0,138.867" /><path
         id="path70"
         style="fill:#e2e3e4;fill-opacity:1;fill-rule:nonzero;stroke:none"
         d="m 1270.6,287.574 c 0,20.715 -0.38,29.918 -22.25,29.918 -21.86,0 -22.25,-9.203 -22.25,-29.918 l 44.5,0 z m -44.5,-12.277 0,-9.016 c 0,-21.289 3.64,-27.426 20.52,-27.426 19.76,0 23.98,0.387 23.98,19.567 l 12.27,0 0,-3.649 c 0,-19.558 -4.79,-27.039 -34.14,-27.039 -32.22,0 -36.06,10.739 -36.06,50.446 0,40.468 6.53,50.441 36.06,50.441 29.35,0 34.14,-11.894 34.14,-38.555 l 0,-14.769 -56.77,0" /><path
         id="path72"
         style="fill:#e2e3e4;fill-opacity:1;fill-rule:nonzero;stroke:none"
         d="m 1306.45,315.961 -10.17,0 0,11.125 10.17,0 0,22.637 12.27,0 0,-22.637 31.65,0 0,-11.125 -31.65,0 0,-65.406 c 0,-8.055 2.49,-11.7 10.55,-11.7 9.21,0 13.24,1.731 13.24,23.399 l 11.12,0 c 0,-31.258 -9.97,-34.52 -24.17,-34.52 -18.03,0 -23.01,5.563 -23.01,20.137 l 0,68.09" /><path
         id="path74"
         style="fill:#e2e3e4;fill-opacity:1;fill-rule:nonzero;stroke:none"
         d="m 1358.22,327.086 12.09,0 19.37,-85.352 0.38,0 18.41,85.352 17.65,0 18.41,-85.543 0.39,0 19.37,85.543 12.08,0 -23.21,-97.82 -17.83,0 -17.84,85.543 -0.39,0 -17.83,-85.543 -17.84,0 -23.21,97.82" /><path
         id="path76"
         style="fill:#e2e3e4;fill-opacity:1;fill-rule:nonzero;stroke:none"
         d="m 1522.18,238.855 c 19.57,0 22.63,2.879 22.63,39.325 0,36.437 -3.06,39.312 -22.63,39.312 -19.56,0 -22.63,-2.875 -22.63,-39.312 0,-36.446 3.07,-39.325 22.63,-39.325 z m 0,89.766 c 32.23,0 36.06,-11.508 36.06,-50.441 0,-40.477 -4.22,-50.446 -36.06,-50.446 -31.84,0 -36.06,9.969 -36.06,50.446 0,38.933 3.84,50.441 36.06,50.441" /><path
         id="path78"
         style="fill:#e2e3e4;fill-opacity:1;fill-rule:nonzero;stroke:none"
         d="m 1576.82,327.086 12.28,0 0,-11.891 0.38,0 c 4.6,9.399 10.36,13.426 22.64,13.426 15.53,0 22.63,-6.715 22.63,-26.277 l 0,-7.864 -11.12,0 c 0.19,18.028 -1.92,23.012 -15.93,23.012 -12.27,0.199 -18.6,-6.707 -18.6,-20.133 l 0,-68.093 -12.28,0 0,97.82" /><path
         id="path80"
         style="fill:#e2e3e4;fill-opacity:1;fill-rule:nonzero;stroke:none"
         d="m 1665.42,275.297 -5.37,0 0,-46.031 -12.27,0 0,138.867 12.27,0 0,-80.559 5.75,0 28.97,39.512 15.15,0 -34.33,-45.266 39.51,-52.554 -16.31,0 -33.37,46.031" /><path
         id="path82"
         style="fill:#e2e3e4;fill-opacity:1;fill-rule:nonzero;stroke:none"
         d="m 1787.76,259.57 c -0.38,-16.875 2.68,-20.715 20.91,-20.715 19.75,0 23.39,2.879 23.39,19.372 0,12.851 -1.33,13.812 -24.55,15.156 -24.55,1.344 -31.26,4.984 -31.26,26.66 0,20.523 3.84,28.578 32.99,28.578 28.59,0 34.14,-6.523 34.14,-27.047 l -12.27,0 c 0,14.965 -4.03,15.918 -22.44,15.918 -17.08,0 -20.14,-1.722 -20.14,-16.875 0,-13.812 1.73,-14.961 22.44,-16.109 28.96,-1.731 33.37,-4.031 33.37,-25.508 0,-23.02 -4.41,-31.266 -36.06,-31.266 -22.44,0 -32.8,2.684 -32.8,31.836 l 12.28,0" /><path
         id="path84"
         style="fill:#e2e3e4;fill-opacity:1;fill-rule:nonzero;stroke:none"
         d="m 1898.8,238.855 c 19.56,0 22.63,2.879 22.63,39.325 0,36.437 -3.07,39.312 -22.63,39.312 -19.57,0 -22.63,-2.875 -22.63,-39.312 0,-36.446 3.06,-39.325 22.63,-39.325 z m 0,89.766 c 32.22,0 36.06,-11.508 36.06,-50.441 0,-40.477 -4.22,-50.446 -36.06,-50.446 -31.84,0 -36.06,9.969 -36.06,50.446 0,38.933 3.84,50.441 36.06,50.441" /><path
         id="path86"
         style="fill:#e2e3e4;fill-opacity:1;fill-rule:nonzero;stroke:none"
         d="m 1956.7,229.266 12.2813,0 0,138.867 -12.2813,0 0,-138.867 z" /><path
         id="path88"
         style="fill:#e2e3e4;fill-opacity:1;fill-rule:nonzero;stroke:none"
         d="m 2061.04,229.266 -12.28,0 0,12.664 -0.39,0 c -6.13,-10.555 -12.85,-14.196 -27.04,-14.196 -22.64,0 -28.77,11.313 -28.77,30.301 l 0,69.051 12.28,0 0,-66.172 c 0,-11.316 2.49,-22.059 18.6,-22.059 14.96,0 25.32,5.758 25.32,26.469 l 0,61.762 12.28,0 0,-97.82" /><path
         id="path90"
         style="fill:#e2e3e4;fill-opacity:1;fill-rule:nonzero;stroke:none"
         d="m 2084.61,315.961 -10.16,0 0,11.125 10.16,0 0,22.637 12.28,0 0,-22.637 31.65,0 0,-11.125 -31.65,0 0,-65.406 c 0,-8.055 2.49,-11.7 10.54,-11.7 9.21,0 13.24,1.731 13.24,23.399 l 11.12,0 c 0,-31.258 -9.97,-34.52 -24.16,-34.52 -18.03,0 -23.02,5.563 -23.02,20.137 l 0,68.09" /><path
         id="path92"
         style="fill:#e2e3e4;fill-opacity:1;fill-rule:nonzero;stroke:none"
         d="m 2148.47,327.086 12.28,0 0,-97.82 -12.28,0 0,97.82 z m 0,41.047 12.28,0 0,-16.301 -12.28,0 0,16.301" /><path
         id="path94"
         style="fill:#e2e3e4;fill-opacity:1;fill-rule:nonzero;stroke:none"
         d="m 2218.67,238.855 c 19.56,0 22.62,2.879 22.62,39.325 0,36.437 -3.06,39.312 -22.62,39.312 -19.58,0 -22.64,-2.875 -22.64,-39.312 0,-36.446 3.06,-39.325 22.64,-39.325 z m 0,89.766 c 32.21,0 36.05,-11.508 36.05,-50.441 0,-40.477 -4.22,-50.446 -36.05,-50.446 -31.85,0 -36.07,9.969 -36.07,50.446 0,38.933 3.84,50.441 36.07,50.441" /><path
         id="path96"
         style="fill:#e2e3e4;fill-opacity:1;fill-rule:nonzero;stroke:none"
         d="m 2273.3,327.086 12.28,0 0,-12.656 0.38,0 c 6.14,10.547 12.85,14.191 27.05,14.191 22.63,0 28.77,-11.316 28.77,-30.305 l 0,-69.05 -12.28,0 0,66.172 c 0,11.32 -2.5,22.054 -18.6,22.054 -14.96,0 -25.32,-5.75 -25.32,-26.461 l 0,-61.765 -12.28,0 0,97.82" /><path
         id="path98"
         style="fill:#e2e3e4;fill-opacity:1;fill-rule:nonzero;stroke:none"
         d="m 2374.17,259.57 c -0.38,-16.875 2.69,-20.715 20.91,-20.715 19.76,0 23.4,2.879 23.4,19.372 0,12.851 -1.34,13.812 -24.55,15.156 -24.55,1.344 -31.26,4.984 -31.26,26.66 0,20.523 3.84,28.578 32.99,28.578 28.58,0 34.14,-6.523 34.14,-27.047 l -12.28,0 c 0,14.965 -4.02,15.918 -22.44,15.918 -17.07,0 -20.14,-1.722 -20.14,-16.875 0,-13.812 1.73,-14.961 22.45,-16.109 28.96,-1.731 33.36,-4.031 33.36,-25.508 0,-23.02 -4.4,-31.266 -36.05,-31.266 -22.44,0 -32.8,2.684 -32.8,31.836 l 12.27,0" /></g></g></svg>